<svg xmlns="http://www.w3.org/2000/svg" viewBox="-2.367 7.307 504.735 504.735"><ellipse id="halo-ear-left" style="stroke-width:7;stroke:#fff;fill:#fff" cx="101.955" cy="250" rx="20.95" ry="39.106"/><ellipse id="halo-ear-right" style="stroke-width:7;stroke:#fff;fill:#fff" cx="398.045" cy="250" rx="20.95" ry="39.106"/><rect id="halo-neck" width="48.603" height="35.754" x="225.698" y="337.988" style="stroke-width:7;stroke:#fff;fill:#fff"/><rect id="halo-head" width="295.531" height="188.827" x="102.234" y="155.587" style="stroke-width:7;stroke:#fff;fill:#fff"/><rect id="halo-body" width="421.788" height="116.76" x="39.106" y="368.715" style="stroke-width:7;stroke:#fff;fill:#fff"/><path id="halo-antenna-left" style="fill:none;stroke:#fff;stroke-width:16;stroke-linecap:round" d="M 191.6210 154.748 C 197.027 129.211 114.886 3.252 110.614 48.045"/><ellipse id="halo-bulb-left" style="stroke:#fff;stroke-width:7;fill:#fff" cx="110.893" cy="56.425" rx="15.586" ry="19.107"/><path id="halo-antenna-right" style="fill:none;stroke:#fff;stroke-width:16;stroke-linecap:round" d="M 308.3790 154.7480 C 302.9730 129.2110 385.1140 3.2520 389.3860 48.0450"/><ellipse id="halo-bulb-right" style="stroke:#fff;stroke-width:7;fill:#fff" cx="389.107" cy="56.425" rx="15.586" ry="19.107"/><ellipse id="ear-left" style="stroke:#000;fill:#563939" cx="101.955" cy="250" rx="20.95" ry="39.106"/><ellipse id="ear-right" style="stroke:#000;fill:#563939" cx="398.045" cy="250" rx="20.95" ry="39.106"/><path id="antenna-left" style="fill:none;stroke:#000;stroke-width:10;stroke-linecap:round" d="M 191.6210 154.748 C 197.027 129.211 114.886 3.252 110.614 48.045"/><ellipse id="bulb-left" style="stroke:#000;stroke-width:1;fill:#090909" cx="110.893" cy="56.425" rx="15.586" ry="19.107"/><path id="antenna-right" style="fill:none;stroke:#000;stroke-width:10;stroke-linecap:round" d="M 308.3790 154.7480 C 302.9730 129.2110 385.1140 3.2520 389.3860 48.0450"/><ellipse id="bulb-right" style="stroke:#000;stroke-width:1;fill:#090909" cx="389.107" cy="56.425" rx="15.586" ry="19.107"/><rect id="neck" width="48.603" height="35.754" x="225.698" y="337.988" style="stroke:#000;fill:#7f4040"/><rect id="head" width="295.531" height="188.827" x="102.234" y="155.587" style="stroke:#000;fill:#d02b2b"/><rect id="body" width="421.788" height="116.76" x="39.106" y="368.715" style="stroke:#000;fill:#d02b2b"/><rect id="eye-left" width="30.168" height="29.609" x="176.537" y="195.531" style="stroke:#000"/><rect id="eye-right" width="30.168" height="29.609" x="293.295" y="195.531" style="stroke:#000"/><text id="mouth" style="font-family:'Liberation Sans',Arial,sans-serif;font-size:28px;white-space:pre" x="217.877" y="268.156" transform="matrix(0.000000, -5.977001, 5.759906, 0.000000, -1236.225593, 1606.114774)">f</text></svg>