<?xml version="1.0" encoding="utf-8"?>
<svg xmlns="http://www.w3.org/2000/svg" viewBox="0 0 500 500">
  <ellipse style="stroke: rgb(0, 0, 0); fill: rgb(25, 15, 15);" cx="101.955" cy="250" rx="20.95" ry="39.106"/>
  <ellipse style="stroke: rgb(0, 0, 0); fill: rgb(25, 15, 15);" cx="398.0450" cy="250" rx="20.95" ry="39.106"/>
  <rect x="225.6985" y="337.988" width="48.603" height="35.754" style="stroke: rgb(0, 0, 0); fill: rgb(71, 30, 30);"/>
  <g>
    <rect x="102.2345" y="155.587" width="295.531" height="188.827" style="stroke: rgb(0, 0, 0); fill: rgb(162, 16, 16);"/>
  </g>
  <rect x="39.1060" y="368.715" width="421.788" height="116.76" style="stroke: rgb(0, 0, 0); fill: rgb(162, 16, 16);"/>
  <path style="fill: none; stroke: rgb(0, 0, 0); stroke-width: 1;" d="M 191.6210 154.748 C 197.027 129.211 114.886 3.252 110.614 48.045"/>
  <ellipse style="stroke: rgb(0, 0, 0); stroke-width: 1; fill: rgb(9, 9, 9);" cx="110.893" cy="56.425" rx="8.659" ry="10.615"/>
  <path style="fill: none; stroke: rgb(0, 0, 0); stroke-width: 1;" d="M 308.3790 154.7480 C 302.9730 129.2110 385.1140 3.2520 389.3860 48.0450"/>
  <ellipse style="stroke: rgb(0, 0, 0); stroke-width: 1; fill: rgb(9, 9, 9);" cx="389.1070" cy="56.425" rx="8.659" ry="10.615"/>
  <rect x="176.537" y="195.531" width="30.168" height="29.609" style="stroke: rgb(0, 0, 0);"/>
  <rect x="293.2950" y="195.531" width="30.168" height="29.609" style="stroke: rgb(0, 0, 0);"/>
  <text style="font-family: Arial, sans-serif; font-size: 28px; white-space: pre;" x="217.877" y="268.156" transform="matrix(0.000000, -5.977001, 5.759906, 0.000000, -1236.225593, 1606.114774)">f</text>
</svg>
